<svg xmlns="http://www.w3.org/2000/svg" viewBox="0 0 512 512">
  <rect width="512" height="512" rx="64" fill="#1a1a3e"/>
  <rect x="96" y="80" width="320" height="352" rx="16" fill="#2980b9" opacity="0.3"/>
  <rect x="112" y="96" width="288" height="320" rx="12" fill="#2980b9" opacity="0.15"/>
  <rect x="128" y="112" width="256" height="288" rx="8" fill="none" stroke="#3498db" stroke-width="3"/>
  <line x1="160" y1="160" x2="352" y2="160" stroke="#3498db" stroke-width="2" opacity="0.6"/>
  <line x1="160" y1="200" x2="320" y2="200" stroke="#3498db" stroke-width="2" opacity="0.4"/>
  <line x1="160" y1="240" x2="340" y2="240" stroke="#3498db" stroke-width="2" opacity="0.4"/>
  <line x1="160" y1="280" x2="300" y2="280" stroke="#3498db" stroke-width="2" opacity="0.4"/>
  <line x1="160" y1="320" x2="330" y2="320" stroke="#3498db" stroke-width="2" opacity="0.4"/>
  <line x1="160" y1="360" x2="280" y2="360" stroke="#3498db" stroke-width="2" opacity="0.4"/>
  <text x="256" y="450" text-anchor="middle" font-family="serif" font-size="36" font-weight="bold" fill="#3498db">BOKI 2</text>
  <path d="M176 128 L240 128 L240 148 L176 148 Z" fill="#3498db" opacity="0.8"/>
  <path d="M256 128 L352 128 L352 148 L256 148 Z" fill="#3498db" opacity="0.5"/>
</svg>
